<?xml version="1.0" encoding="UTF-8"?>
<svg width="358px" height="48px" viewBox="0 0 358 48" version="1.1" xmlns="http://www.w3.org/2000/svg" xmlns:xlink="http://www.w3.org/1999/xlink">
    <title>passport-svg</title>
    <g id="M3" stroke="none" stroke-width="1" fill="none" fill-rule="evenodd">
        <g id="Passport_Tablet_M3" transform="translate(-104.000000, -266.000000)">
            <g id="s1---main-banner" transform="translate(47.000000, 206.000000)">
                <g id="passport-svg" transform="translate(57.382979, 60.351064)">
                    <g id="KPBS" transform="translate(0.000000, 6.925532)" fill="#FFFFFF" fill-rule="nonzero">
                        <polygon id="Path" points="18.3217845 31.2072948 7.37509806 17.7745897 7.37509806 31.2072948 0 31.2072948 0 0.452279635 7.37509806 0.452279635 7.37509806 13.7493009 18.1826317 0.452279635 26.8101049 0.452279635 13.7761266 15.2870517 27.2275633 31.2072948"></polygon>
                        <path d="M39.983236,0.452279635 C42.5807548,0.452279635 44.7994688,0.874407295 46.639378,1.71866261 C48.4792871,2.56291793 49.8708151,3.73130699 50.8139618,5.22382979 C51.7571085,6.71635258 52.2286818,8.44255319 52.2286818,10.4024316 C52.2286818,12.5733739 51.7107242,14.4729483 50.674809,16.101155 C49.6388937,17.7293617 48.2009815,18.9806687 46.3610724,19.855076 C44.5211632,20.7294833 42.4106792,21.1666869 40.0296203,21.1666869 L37.3393329,21.1666869 L37.3393329,31.2072948 L29.9642349,31.2072948 L29.9642349,0.452279635 L39.983236,0.452279635 Z M39.287472,15.4679635 C41.0191512,15.4679635 42.3488335,15.0081459 43.2765188,14.0885106 C44.2042041,13.1688754 44.6680467,12.0155623 44.6680467,10.6285714 C44.6680467,9.21142857 44.1964734,8.11088146 43.2533267,7.32693009 C42.3101799,6.54297872 41.0655355,6.15100304 39.5193934,6.15100304 L37.3393329,6.15100304 L37.3393329,15.4679635 L39.287472,15.4679635 Z" id="Shape"></path>
                        <path d="M73.3335222,14.6086322 C74.9105872,14.940304 76.3253072,15.7468693 77.5776824,17.0283283 C78.8300575,18.3097872 79.4562451,20.0058359 79.4562451,22.1164742 C79.4562451,24.9206079 78.4357913,27.1367781 76.3948836,28.7649848 C74.353976,30.3931915 71.4472288,31.2072948 67.6746419,31.2072948 L56.635187,31.2072948 L56.635187,0.452279635 L66.8861094,0.452279635 C70.2876221,0.452279635 72.8928717,1.10808511 74.701858,2.41969605 C76.5108443,3.73130699 77.4153375,5.65349544 77.4153375,8.1862614 C77.4153375,9.78431611 77.0288019,11.141155 76.2557308,12.2567781 C75.4826598,13.3724012 74.5085902,14.1563526 73.3335222,14.6086322 Z M63.9639008,5.78917933 L63.9639008,12.7542857 L66.0975769,12.7542857 C67.3963363,12.7542857 68.393598,12.422614 69.089362,11.7592705 C69.7851259,11.0959271 70.1330079,10.2064438 70.1330079,9.09082067 C70.1330079,8.03550152 69.8005874,7.22139818 69.1357462,6.64851064 C68.4709051,6.0756231 67.5045663,5.78917933 66.2367297,5.78917933 L63.9639008,5.78917933 Z M66.8861094,25.7347112 C68.5868658,25.7347112 69.8392409,25.3804255 70.6432348,24.6718541 C71.4472288,23.9632827 71.8492257,22.9758055 71.8492257,21.7094225 C71.8492257,20.5033435 71.439498,19.5610942 70.6200427,18.8826748 C69.8005874,18.2042553 68.5559429,17.8650456 66.8861094,17.8650456 L63.9639008,17.8650456 L63.9639008,25.7347112 L66.8861094,25.7347112 Z" id="Shape"></path>
                        <path d="M91.6089224,31.6595745 C90.0009346,31.6595745 88.4084081,31.5088146 86.8313432,31.2072948 C85.2542782,30.9057751 83.8936731,30.4987234 82.7495279,29.9861398 L82.7495279,23.2924012 C83.9555188,23.9255927 85.3083931,24.4607903 86.808151,24.8979939 C88.3079089,25.3351976 89.7690132,25.5537994 91.191464,25.5537994 C92.8612975,25.5537994 94.105942,25.2899696 94.9253973,24.76231 C95.7448526,24.2346505 96.1545803,23.503465 96.1545803,22.5687538 C96.1545803,21.6641945 95.7216605,20.9028571 94.8558209,20.2847416 C93.9899813,19.6666261 92.4283777,18.8751368 90.1710102,17.9102736 C87.4807229,16.7644985 85.524853,15.4905775 84.3034007,14.0885106 C83.0819484,12.6864438 82.4712223,10.9602432 82.4712223,8.90990881 C82.4712223,7.0706383 82.9737185,5.48012158 83.9787109,4.13835866 C84.9837033,2.79659574 86.3675005,1.77142857 88.1301026,1.06285714 C89.8927046,0.354285714 91.887228,0 94.1136727,0 C95.8453519,0 97.2832641,0.097993921 98.4274093,0.293981763 C99.5715545,0.489969605 100.700238,0.753799392 101.813461,1.08547112 L101.813461,7.32693009 C99.5870159,6.51282675 97.3296484,6.10577508 95.041358,6.10577508 C93.5570615,6.10577508 92.3819935,6.33191489 91.5161539,6.78419453 C90.6503143,7.23647416 90.2173945,7.91489362 90.2173945,8.81945289 C90.2173945,9.39234043 90.4261237,9.88231003 90.843582,10.2893617 C91.2610404,10.6964134 91.8176516,11.0733131 92.5134156,11.4200608 C93.2091795,11.7668085 94.5156696,12.347234 96.4328859,13.1613374 C99.0613276,14.3071125 100.924429,15.6111854 102.02219,17.0735562 C103.119951,18.5359271 103.668831,20.2319757 103.668831,22.1617021 C103.668831,24.0311246 103.204989,25.6819453 102.277303,27.1141641 C101.349618,28.546383 99.9812821,29.6620061 98.1722958,30.4610334 C96.3633095,31.2600608 94.1755184,31.6595745 91.6089224,31.6595745 Z" id="Path"></path>
                    </g>
                    <g id="passport--black" transform="translate(117.759740, 0.000000)">
                        <ellipse id="Oval" fill="#5680FF" fill-rule="nonzero" cx="21.6396104" cy="21.2712766" rx="21.6396104" ry="21.2712766"></ellipse>
                        <path d="M2.31852968,21.2951636 C2.33127663,16.2392614 4.38671809,11.3954151 8.03267704,7.82922355 C11.678636,4.26303198 16.616452,2.26662141 21.7598537,2.27912372 L21.7598537,2.27912372 C32.4115123,2.34438812 41.0001497,10.8714039 40.9605547,21.3419865 C40.9206852,31.812569 32.2675735,40.2763654 21.6157164,40.2634731 C10.9638593,40.2505514 2.33200132,31.7658106 2.31852968,21.2951636 L2.31852968,21.2951636 Z M17.9582087,17.5936698 L21.651579,5.25929905 C12.6902103,5.28486516 5.41722427,12.3919444 5.33819078,21.2005567 L17.9582087,17.5936698 Z M5.33819078,21.3661187 L17.9461781,24.9848315 L21.651579,37.3192023 C12.6855626,37.2935681 5.41067241,30.1793544 5.33819078,21.3661187 Z M21.7598537,37.3192023 L25.5133767,24.9848315 L38.121364,21.3661187 C38.048693,30.1977641 30.7446373,37.3194912 21.7598537,37.3192023 Z M38.1333946,21.2005567 L38.1333946,21.2005567 C38.0475991,12.3716331 30.7419843,5.25889626 21.7598537,5.25929905 L25.5133767,17.6527991 L38.1333946,21.2005567 Z" id="Shape" fill="#FFFFFF"></path>
                        <path d="M31.6865724,11.3953267 L28.8617916,16.4944819 L27.045861,15.9669831 L26.5117638,14.1500427 L31.6865724,11.3953267 Z M26.5117638,28.3690661 L27.045861,26.5872923 L28.8617916,26.0597935 L31.6865724,31.1472264 L26.5117638,28.3690661 Z M14.4174292,26.0246269 L11.5926484,31.1472264 L16.7674569,28.3690661 L16.2333597,26.5872923 L14.4174292,26.0246269 Z M16.7911946,14.1383205 L16.2570974,15.9200943 L14.4174292,16.4944819 L11.5926484,11.3953267 L16.7911946,14.1383205 Z" id="Shape" fill="#FFFFFF"></path>
                    </g>
                    <g id="Passport" transform="translate(176.136364, 6.925532)" fill="#FFFFFF" fill-rule="nonzero">
                        <path d="M10.028823,0 C12.6288883,0 14.8497773,0.426346559 16.6914902,1.27903968 C18.5332031,2.1317328 19.9260952,3.31179917 20.8701665,4.81923879 C21.8142378,6.32667841 22.2862734,8.0701313 22.2862734,10.0495975 C22.2862734,12.2422369 21.7678081,14.1607964 20.7308773,15.805276 C19.6939465,17.4497556 18.2546247,18.7135686 16.4129118,19.5967151 C14.5711989,20.4798615 12.4586459,20.9214347 10.0752528,20.9214347 L7.38232808,20.9214347 L7.38232808,31.0623922 L0,31.0623922 L0,0 L10.028823,0 Z M9.332377,15.1657562 C11.0657538,15.1657562 12.3967396,14.701343 13.3253343,13.7725165 C14.2539291,12.8436901 14.7182264,11.6788504 14.7182264,10.2779974 C14.7182264,8.84669111 14.2461908,7.73514472 13.3021195,6.94335825 C12.3580482,6.15157178 11.1121836,5.75567855 9.56452568,5.75567855 L7.38232808,5.75567855 L7.38232808,15.1657562 L9.332377,15.1657562 Z" id="Shape"></path>
                        <path d="M35.3794591,7.49151811 C38.8771659,7.49151811 41.4849694,8.32137124 43.2028697,9.98107749 C44.9207699,11.6407837 45.77972,13.9476232 45.77972,16.9015957 L45.77972,31.0623922 L40.2081517,31.0623922 L39.4188461,29.1438327 C38.6450172,29.8138058 37.6467779,30.3848057 36.4241282,30.8568322 C35.2014784,31.3288588 33.8627544,31.5648721 32.407956,31.5648721 C30.0864691,31.5648721 28.2138031,30.9329655 26.7899579,29.6691525 C25.3661126,28.4053395 24.65419,26.6618866 24.65419,24.4387938 C24.65419,21.7284479 25.6911208,19.7718217 27.7649823,18.5689153 C29.8388439,17.366009 32.407956,16.7645558 35.4723186,16.7645558 C36.6175854,16.7645558 37.7318991,16.8559158 38.8152596,17.0386357 C38.8152596,15.6986894 38.5134663,14.6708896 37.9098797,13.9552365 C37.3062931,13.2395833 36.0759051,12.8817568 34.2187157,12.8817568 C33.0424957,12.8817568 31.8043694,13.0264101 30.5043368,13.3157166 C29.2043042,13.6050232 27.9661779,14.0237565 26.7899579,14.5719163 L26.7899579,8.99895773 C29.6376484,7.99399799 32.5008154,7.49151811 35.3794591,7.49151811 Z M31.8043694,23.936314 C31.8043694,24.6367405 32.0519946,25.200127 32.5472452,25.6264735 C33.0424957,26.0528201 33.7389417,26.2659934 34.6365833,26.2659934 C36.0294754,26.2659934 37.4223675,25.8091935 38.8152596,24.8955937 L38.8152596,21.2411947 C38.103337,21.1498347 37.3759377,21.1041547 36.633062,21.1041547 C35.2092167,21.1041547 34.0484733,21.317328 33.1508317,21.7436745 C32.2531902,22.1700211 31.8043694,22.9009009 31.8043694,23.936314 Z" id="Shape"></path>
                        <path d="M57.9443109,31.5648721 C55.0966204,31.5648721 52.6048913,31.1232988 50.4691234,30.2401524 L50.4691234,24.6671938 C51.366765,25.154447 52.4656021,25.5579536 53.7656347,25.8777135 C55.0656673,26.1974734 56.2728404,26.3573534 57.3871541,26.3573534 C58.5633741,26.3573534 59.4919688,26.1898601 60.1729383,25.8548735 C60.8539078,25.5198869 61.1943925,25.0478604 61.1943925,24.4387938 C61.1943925,24.0124473 61.0783181,23.6546207 60.8461695,23.3653141 C60.6140208,23.0760075 60.2038914,22.7943143 59.6157815,22.5202343 C59.0276715,22.2461544 58.1145533,21.8959412 56.876427,21.4695946 C54.523987,20.6473548 52.8447782,19.688075 51.8388006,18.5917553 C50.832823,17.4954356 50.3298342,16.0945826 50.3298342,14.3891964 C50.3298342,13.04925 50.7167487,11.853957 51.4905776,10.8033173 C52.2644065,9.75267754 53.3864585,8.93043775 54.8567335,8.3365979 C56.3270085,7.74275805 58.0681236,7.44583813 60.0800788,7.44583813 C62.5253783,7.44583813 64.7075759,7.79605137 66.6266716,8.49647786 L66.6266716,13.7496765 C65.8837959,13.4451433 64.9629394,13.18629 63.8641023,12.9731167 C62.7652652,12.7599435 61.7051196,12.6533568 60.6836654,12.6533568 C59.5074454,12.6533568 58.586589,12.7980101 57.9210961,13.0873167 C57.2556032,13.3766233 56.9228567,13.7496765 56.9228567,14.2064764 C56.9228567,14.6023697 57.1008374,14.9449696 57.4567987,15.2342762 C57.81276,15.5235828 58.3699169,15.8205027 59.1282692,16.1250359 C59.8866216,16.4295692 60.7146185,16.7341025 61.6122601,17.0386357 C63.8408875,17.8608755 65.4349751,18.8201553 66.394523,19.916475 C67.3540708,21.0127947 67.8338448,22.489781 67.8338448,24.3474339 C67.8338448,26.5400733 66.9748947,28.2911395 65.2569944,29.6006325 C63.5390942,30.9101256 61.101533,31.5648721 57.9443109,31.5648721 Z" id="Path"></path>
                        <path d="M78.5591139,31.5648721 C75.7114234,31.5648721 73.2196942,31.1232988 71.0839263,30.2401524 L71.0839263,24.6671938 C71.9815679,25.154447 73.080405,25.5579536 74.3804376,25.8777135 C75.6804702,26.1974734 76.8876434,26.3573534 78.001957,26.3573534 C79.178177,26.3573534 80.1067718,26.1898601 80.7877412,25.8548735 C81.4687107,25.5198869 81.8091954,25.0478604 81.8091954,24.4387938 C81.8091954,24.0124473 81.6931211,23.6546207 81.4609724,23.3653141 C81.2288237,23.0760075 80.8186944,22.7943143 80.2305844,22.5202343 C79.6424744,22.2461544 78.7293562,21.8959412 77.4912299,21.4695946 C75.13879,20.6473548 73.4595812,19.688075 72.4536035,18.5917553 C71.4476259,17.4954356 70.9446371,16.0945826 70.9446371,14.3891964 C70.9446371,13.04925 71.3315516,11.853957 72.1053805,10.8033173 C72.8792095,9.75267754 74.0012614,8.93043775 75.4715364,8.3365979 C76.9418114,7.74275805 78.6829265,7.44583813 80.6948817,7.44583813 C83.1401812,7.44583813 85.3223788,7.79605137 87.2414746,8.49647786 L87.2414746,13.7496765 C86.4985988,13.4451433 85.5777423,13.18629 84.4789053,12.9731167 C83.3800682,12.7599435 82.3199225,12.6533568 81.2984683,12.6533568 C80.1222483,12.6533568 79.2013919,12.7980101 78.535899,13.0873167 C77.8704061,13.3766233 77.5376597,13.7496765 77.5376597,14.2064764 C77.5376597,14.6023697 77.7156403,14.9449696 78.0716016,15.2342762 C78.427563,15.5235828 78.9847198,15.8205027 79.7430722,16.1250359 C80.5014245,16.4295692 81.3294215,16.7341025 82.227063,17.0386357 C84.4556904,17.8608755 86.049778,18.8201553 87.0093259,19.916475 C87.9688738,21.0127947 88.4486477,22.489781 88.4486477,24.3474339 C88.4486477,26.5400733 87.5896976,28.2911395 85.8717973,29.6006325 C84.1538971,30.9101256 81.7163359,31.5648721 78.5591139,31.5648721 Z" id="Path"></path>
                        <path d="M103.631171,7.49151811 C107.469363,7.49151811 110.456343,8.51170452 112.592111,10.5520773 C114.727878,12.5924502 115.795762,15.5616494 115.795762,19.4596751 C115.795762,21.8350345 115.339203,23.9439273 114.426085,25.7863535 C113.512967,27.6287797 112.212934,29.0524727 110.525987,30.0574324 C108.83904,31.0623922 106.865776,31.5648721 104.606196,31.5648721 C102.810913,31.5648721 101.247778,31.2907921 99.9167926,30.7426323 L99.9167926,40.5638298 L92.9523321,40.5638298 L92.9523321,9.36439764 C96.7595705,8.11581129 100.319184,7.49151811 103.631171,7.49151811 Z M103.213304,25.6264735 C104.853821,25.6264735 106.153854,25.0478604 107.113402,23.890634 C108.07295,22.7334076 108.552724,21.180288 108.552724,19.2312752 C108.552724,17.3127156 108.096164,15.8357293 107.183046,14.8003163 C106.269928,13.7649032 105.024064,13.2471967 103.445453,13.2471967 C102.331139,13.2471967 101.154919,13.4299166 99.9167926,13.7953565 L99.9167926,24.8955937 C100.907294,25.3828469 102.006131,25.6264735 103.213304,25.6264735 Z" id="Shape"></path>
                        <path d="M131.210435,31.5648721 C128.888948,31.5648721 126.807348,31.0776188 124.965635,30.1031124 C123.123922,29.128606 121.676862,27.7353664 120.624455,25.9233935 C119.572048,24.1114206 119.045844,21.9568478 119.045844,19.4596751 C119.045844,16.9625024 119.572048,14.8155429 120.624455,13.0187967 C121.676862,11.2220505 123.139399,9.84403752 125.012065,8.88475776 C126.884731,7.925478 128.997284,7.44583813 131.349724,7.44583813 C133.640258,7.44583813 135.714119,7.925478 137.571309,8.88475776 C139.428498,9.84403752 140.883297,11.2144372 141.935704,12.9959567 C142.988111,14.7774763 143.514315,16.8254624 143.514315,19.1399152 C143.514315,21.6979945 142.988111,23.913474 141.935704,25.7863535 C140.883297,27.659233 139.42076,29.0905393 137.548094,30.0802724 C135.675428,31.0700055 133.562875,31.5648721 131.210435,31.5648721 Z M131.303294,25.7635135 C132.758093,25.7635135 133.949789,25.2077403 134.878384,24.0961939 C135.806979,22.9846475 136.271276,21.3782346 136.271276,19.2769551 C136.271276,17.388849 135.822455,15.9118627 134.924814,14.8459963 C134.027172,13.7801299 132.819999,13.2471967 131.303294,13.2471967 C129.78659,13.2471967 128.571678,13.7725165 127.65856,14.8231563 C126.745442,15.873796 126.288883,17.4040756 126.288883,19.4139951 C126.288883,21.4239146 126.75318,22.9846475 127.681775,24.0961939 C128.61037,25.2077403 129.817543,25.7635135 131.303294,25.7635135 Z" id="Shape"></path>
                        <path d="M160.971896,7.67423807 C161.838584,7.67423807 162.550507,7.75037138 163.107664,7.90263801 L163.107664,14.4805564 C162.67432,14.3587431 162.21776,14.2521564 161.737987,14.1607964 C161.258213,14.0694365 160.755224,14.0237565 160.22902,14.0237565 C159.14566,14.0237565 158.170635,14.2597697 157.303947,14.7317963 C156.437258,15.2038228 155.725336,15.805276 155.168179,16.5361558 L155.168179,31.0623922 L148.203718,31.0623922 L148.203718,8.03967798 L154.193154,8.03967798 L155.02889,10.8718373 C155.617,9.86687752 156.414043,9.08270438 157.420021,8.51931786 C158.425999,7.95593133 159.609957,7.67423807 160.971896,7.67423807 Z" id="Path"></path>
                        <path d="M175.086536,13.1101567 L175.086536,22.5202343 C175.086536,23.6774607 175.334161,24.5529938 175.829411,25.1468337 C176.324662,25.7406735 177.160397,26.0375934 178.336617,26.0375934 C179.358071,26.0375934 180.240236,25.9157801 180.983112,25.6721535 L180.983112,30.8796722 C180.456909,31.0928455 179.768201,31.2603388 178.916989,31.3821521 C178.065777,31.5039654 177.175874,31.5648721 176.247279,31.5648721 C173.523401,31.5648721 171.488231,30.8872856 170.141769,29.5321126 C168.795306,28.1769396 168.122075,26.2355401 168.122075,23.707914 L168.122075,13.1101567 L164.500556,13.1101567 L164.500556,8.03967798 L168.122075,8.03967798 L168.122075,3.01487924 L175.086536,1.14199971 L175.086536,8.03967798 L181.168831,8.03967798 L181.168831,13.1101567 L175.086536,13.1101567 Z" id="Path"></path>
                    </g>
                </g>
            </g>
        </g>
    </g>
</svg>