<?xml version="1.0" encoding="UTF-8"?>
<svg width="199px" height="26px" viewBox="0 0 199 26" version="1.1" xmlns="http://www.w3.org/2000/svg" xmlns:xlink="http://www.w3.org/1999/xlink">
    <title>passport-feature</title>
    <g id="M3" stroke="none" stroke-width="1" fill="none" fill-rule="evenodd">
        <g id="Passport_Tablet_M3" transform="translate(-737.000000, -1410.000000)">
            <g id="s3-table" transform="translate(47.690691, 1406.000000)">
                <g id="thead" transform="translate(-0.000000, 0.000000)">
                    <g id="kpbs_passport" transform="translate(647.446714, 4.631745)">
                        <g id="passport-feature" transform="translate(42.128929, -0.000000)">
                            <g id="KPBS" transform="translate(0.000000, 3.705396)" fill="#000000" fill-rule="nonzero">
                                <polygon id="Path" points="10.1734128 16.4360776 4.09512061 9.36141814 4.09512061 16.4360776 0 16.4360776 0 0.238204024 4.09512061 0.238204024 4.09512061 7.24140233 10.0961464 0.238204024 14.8866649 0.238204024 7.64937624 8.05129601 15.1184641 16.4360776"></polygon>
                                <path d="M22.2012199,0.238204024 C23.6435266,0.238204024 24.8754968,0.46052778 25.8971307,0.905175291 C26.9187645,1.3498228 27.6914288,1.9651832 28.2151235,2.75125648 C28.7388181,3.53732976 29.0006655,4.44647511 29.0006655,5.47869255 C29.0006655,6.62207186 28.7130627,7.62252877 28.137857,8.48006325 C27.5626514,9.33759774 26.7642317,9.99662887 25.7425978,10.4571566 C24.7209639,10.9176844 23.5490898,11.1479483 22.2269754,11.1479483 L20.7331578,11.1479483 L20.7331578,16.4360776 L16.6380372,16.4360776 L16.6380372,0.238204024 L22.2012199,0.238204024 Z M21.8148878,8.14657762 C22.7764255,8.14657762 23.5147492,7.90440353 24.0298587,7.42005534 C24.5449682,6.93570716 24.802523,6.3282869 24.802523,5.59779456 C24.802523,4.85142195 24.5406756,4.27179216 24.016981,3.85890519 C23.4932863,3.44601821 22.802181,3.23957473 21.9436652,3.23957473 L20.7331578,3.23957473 L20.7331578,8.14657762 L21.8148878,8.14657762 Z" id="Shape"></path>
                                <path d="M40.7194068,7.69398997 C41.595093,7.86867292 42.380635,8.2934701 43.0760329,8.9683815 C43.7714307,9.6432929 44.1191296,10.536558 44.1191296,11.6481768 C44.1191296,13.1250417 43.5525092,14.2922414 42.4192682,15.1497759 C41.2860273,16.0073104 39.6720175,16.4360776 37.5772388,16.4360776 L31.4474356,16.4360776 L31.4474356,0.238204024 L37.1393957,0.238204024 C39.0281306,0.238204024 40.4747298,0.583599859 41.4791934,1.27439153 C42.4836569,1.9651832 42.9858887,2.9775503 42.9858887,4.31149283 C42.9858887,5.15314705 42.7712597,5.86775912 42.3420018,6.45532905 C41.9127439,7.04289897 41.3718789,7.45578595 40.7194068,7.69398997 Z M35.5168008,3.04901151 L35.5168008,6.71735347 L36.7015527,6.71735347 C37.422706,6.71735347 37.9764487,6.54267052 38.3627808,6.19330462 C38.749113,5.84393872 38.942279,5.37547081 38.942279,4.78790088 C38.942279,4.23209149 38.7576981,3.80332425 38.3885363,3.50159915 C38.0193745,3.19987405 37.4828021,3.04901151 36.7788191,3.04901151 L35.5168008,3.04901151 Z M37.1393957,13.553809 C38.0837632,13.553809 38.779161,13.3672158 39.2255893,12.9940295 C39.6720175,12.6208432 39.8952316,12.1007644 39.8952316,11.4337931 C39.8952316,10.7985824 39.6677249,10.302324 39.2127115,9.945018 C38.7576981,9.58771196 38.0665929,9.40905894 37.1393957,9.40905894 L35.5168008,9.40905894 L35.5168008,13.553809 L37.1393957,13.553809 Z" id="Shape"></path>
                                <path d="M50.8670642,16.6742817 C49.9742077,16.6742817 49.0899364,16.5948803 48.2142502,16.4360776 C47.3385641,16.277275 46.5830701,16.0628913 45.9477684,15.7929268 L45.9477684,12.2675072 C46.6174107,12.6009929 47.3686121,12.8828676 48.2013725,13.1131315 C49.0341329,13.3433954 49.8454303,13.4585274 50.6352649,13.4585274 C51.5624621,13.4585274 52.2535673,13.319575 52.7085807,13.0416703 C53.1635941,12.7637656 53.3911008,12.3786691 53.3911008,11.8863808 C53.3911008,11.4099727 53.1507164,11.008996 52.6699475,10.6834505 C52.1891786,10.357905 51.3220776,9.94104793 50.0686445,9.43287935 C48.5748269,8.82942915 47.4888043,8.15848782 46.8105768,7.42005534 C46.1323493,6.68162287 45.7932355,5.77247751 45.7932355,4.69261927 C45.7932355,3.72392291 46.0722532,2.88623876 46.6302885,2.17956682 C47.1883238,1.47289488 47.9566955,0.93296576 48.9354035,0.559779456 C49.9141116,0.186593152 51.0215971,0 52.2578599,0 C53.2193976,0 54.0178174,0.0516108718 54.6531191,0.154832616 C55.2884208,0.258054359 55.9151374,0.397006707 56.5332688,0.571689657 L56.5332688,3.85890519 C55.297006,3.43013794 54.0435729,3.21575432 52.7729694,3.21575432 C51.9487942,3.21575432 51.2963221,3.33485633 50.8155533,3.57306036 C50.3347844,3.81126438 50.0943999,4.16857042 50.0943999,4.64497847 C50.0943999,4.94670356 50.2102996,5.20475792 50.4420989,5.41914154 C50.6738981,5.63352517 50.9829639,5.83202852 51.369296,6.0146516 C51.7556281,6.19727469 52.481074,6.50296985 53.5456337,6.9317371 C55.0051106,7.53518729 56.0396222,8.22200889 56.6491685,8.9922019 C57.2587147,9.76239491 57.5634879,10.65566 57.5634879,11.6719972 C57.5634879,12.6565738 57.3059331,13.5260185 56.7908236,14.2803312 C56.2757141,15.034644 55.5159275,15.6222139 54.511464,16.043041 C53.5070005,16.4638681 52.2922005,16.6742817 50.8670642,16.6742817 Z" id="Path"></path>
                            </g>
                            <g id="passport--black" transform="translate(65.503279, 0.000000)">
                                <ellipse id="Oval" fill="#5680FF" fill-rule="nonzero" cx="11.9096871" cy="11.1161878" rx="11.9096871" ry="11.1161878"></ellipse>
                                <path d="M1.27603791,11.1286709 C1.28305338,8.48649955 2.41429671,5.95514678 4.4209054,4.09148547 C6.42751409,2.22782417 9.14511586,1.18451702 11.9758649,1.19105062 L11.9758649,1.19105062 C17.8381664,1.22515724 22.565053,5.68130297 22.5432613,11.1531402 C22.5213185,16.6249773 17.7589475,21.0480851 11.8965367,21.0413478 C6.03412591,21.034595 1.28345223,16.6005418 1.27603791,11.1286709 L1.27603791,11.1286709 Z M9.88357198,9.19430182 L11.9162743,2.74846484 C6.98424931,2.76182547 2.98145138,6.47592451 2.9379541,11.0792302 L9.88357198,9.19430182 Z M2.9379541,11.1657515 L9.8769508,13.0568599 L11.9162743,19.5026969 C6.98169138,19.4893007 2.97784547,15.7714733 2.9379541,11.1657515 Z M11.9758649,19.5026969 L14.0416731,13.0568599 L20.9806698,11.1657515 C20.9406741,15.781094 16.9207765,19.5028479 11.9758649,19.5026969 Z M20.9872909,11.0792302 L20.9872909,11.0792302 C20.9400721,6.46530997 16.9193164,2.74825435 11.9758649,2.74846484 L14.0416731,9.22520228 L20.9872909,11.0792302 Z" id="Shape" fill="#FFFFFF"></path>
                                <path d="M17.4391847,5.9551006 L15.8845239,8.61987558 L14.885099,8.34420921 L14.5911505,7.39469168 L17.4391847,5.9551006 Z M14.5911505,14.825432 L14.885099,13.8942923 L15.8845239,13.6186259 L17.4391847,16.277275 L14.5911505,14.825432 Z M7.93485041,13.6002481 L6.38018954,16.277275 L9.22822375,14.825432 L8.93427526,13.8942923 L7.93485041,13.6002481 Z M9.24128812,7.38856576 L8.94733964,8.31970553 L7.93485041,8.61987558 L6.38018954,5.9551006 L9.24128812,7.38856576 Z" id="Shape" fill="#FFFFFF"></path>
                            </g>
                            <g id="Passport" transform="translate(98.254919, 3.705396)" fill="#000000" fill-rule="nonzero">
                                <path d="M5.54890088,0 C6.98750481,0 8.21631233,0.223937216 9.23532345,0.671811649 C10.2543346,1.11968608 11.0250152,1.73951231 11.5473655,2.53129032 C12.0697157,3.32306834 12.3308908,4.2388116 12.3308908,5.2785201 C12.3308908,6.43019721 12.0440264,7.43791469 11.4702974,8.30167252 C10.8965685,9.16543035 10.1001984,9.82924425 9.08118732,10.2931142 C8.0621762,10.7569841 6.8933105,10.9889191 5.57459023,10.9889191 L4.08460759,10.9889191 L4.08460759,16.3154258 L0,16.3154258 L0,0 L5.54890088,0 Z M5.16356054,7.9657667 C6.12262983,7.9657667 6.85905803,7.72183508 7.37284515,7.23397186 C7.88663227,6.74610864 8.14352583,6.13428018 8.14352583,5.39848647 C8.14352583,4.64669724 7.88235071,4.06286093 7.36000047,3.64697752 C6.83765023,3.23109412 6.14831918,3.02315242 5.29200732,3.02315242 L4.08460759,3.02315242 L4.08460759,7.9657667 L5.16356054,7.9657667 Z" id="Shape"></path>
                                <path d="M19.5752892,3.9348968 C21.510554,3.9348968 22.9534395,4.3707746 23.9039457,5.24253019 C24.8544518,6.11428578 25.3297049,7.32594608 25.3297049,8.87751108 L25.3297049,16.3154258 L22.2469822,16.3154258 L21.8102632,15.3077083 C21.3821072,15.6596096 20.8297861,15.9595255 20.1532997,16.207456 C19.4768133,16.4553865 18.7361036,16.5793518 17.9311704,16.5793518 C16.6467026,16.5793518 15.6105653,16.2474448 14.8227584,15.5836309 C14.0349514,14.919817 13.641048,14.0040738 13.641048,12.8364012 C13.641048,11.4128003 14.2147769,10.3850884 15.3622348,9.75326555 C16.5096927,9.12144269 17.9311704,8.80553126 19.6266679,8.80553126 C20.2603387,8.80553126 20.8768832,8.8535178 21.4763015,8.9494909 C21.4763015,8.24568822 21.3093207,7.70583957 20.9753591,7.32994496 C20.6413975,6.95405034 19.9606295,6.76610304 18.9330553,6.76610304 C18.2822583,6.76610304 17.5972088,6.84208173 16.8779068,6.99403913 C16.1586049,7.14599653 15.4735554,7.36593487 14.8227584,7.65385414 L14.8227584,4.72667482 C16.3983722,4.19882281 17.9825491,3.9348968 19.5752892,3.9348968 Z M17.5972088,12.5724751 C17.5972088,12.940372 17.7342187,13.236289 18.0082385,13.4602263 C18.2822583,13.6841635 18.6675986,13.7961321 19.1642595,13.7961321 C19.9349402,13.7961321 20.7056209,13.5561993 21.4763015,13.0763339 L21.4763015,11.156872 C21.0823981,11.1088855 20.6799315,11.0848922 20.2689018,11.0848922 C19.4810949,11.0848922 18.838861,11.1968608 18.3422001,11.420798 C17.8455392,11.6447352 17.5972088,12.0286276 17.5972088,12.5724751 Z" id="Shape"></path>
                                <path d="M32.0603162,16.5793518 C30.4847024,16.5793518 29.1060403,16.3474168 27.9243299,15.8835468 L27.9243299,12.9563675 C28.4209908,13.2122958 29.0289722,13.4242363 29.7482741,13.5921893 C30.4675761,13.7601422 31.1354994,13.8441186 31.7520439,13.8441186 C32.4028409,13.8441186 32.916628,13.7561433 33.2934053,13.5801926 C33.6701825,13.4042419 33.8585711,13.1563115 33.8585711,12.8364012 C33.8585711,12.6124639 33.7943477,12.4245166 33.6659009,12.2725592 C33.5374541,12.1206018 33.3105315,11.9726433 32.985133,11.8286837 C32.6597345,11.684724 32.1545105,11.5007756 31.469461,11.2768384 C30.167867,10.8449595 29.2387686,10.3411007 28.6821659,9.76526218 C28.1255632,9.18942363 27.8472618,8.45362992 27.8472618,7.55788105 C27.8472618,6.85407837 28.0613398,6.22625439 28.4894957,5.67440911 C28.9176516,5.12256382 29.5384777,4.69068491 30.351974,4.37877236 C31.1654703,4.0668598 32.1288211,3.91090353 33.2420266,3.91090353 C34.5949993,3.91090353 35.802399,4.09485196 36.8642257,4.46274881 L36.8642257,7.22197523 C36.453196,7.06202007 35.9436905,6.92605819 35.3357091,6.81408958 C34.7277276,6.70212097 34.141154,6.64613667 33.5759882,6.64613667 C32.9251912,6.64613667 32.4156856,6.72211537 32.0474715,6.87407277 C31.6792574,7.02603016 31.4951504,7.22197523 31.4951504,7.46190796 C31.4951504,7.66984966 31.5936262,7.84979921 31.7905779,8.00175661 C31.9875297,8.153714 32.2958019,8.30967028 32.7153948,8.46962543 C33.1349876,8.62958059 33.5931144,8.78953574 34.0897753,8.9494909 C35.3228644,9.38136981 36.2048656,9.88522855 36.735779,10.4610671 C37.2666923,11.0369057 37.532149,11.8126882 37.532149,12.7884146 C37.532149,13.9400917 37.0568959,14.8598339 36.1063897,15.547641 C35.1558836,16.2354482 33.8071924,16.5793518 32.0603162,16.5793518 Z" id="Path"></path>
                                <path d="M43.4663902,16.5793518 C41.8907764,16.5793518 40.5121143,16.3474168 39.3304039,15.8835468 L39.3304039,12.9563675 C39.8270648,13.2122958 40.4350462,13.4242363 41.1543482,13.5921893 C41.8736501,13.7601422 42.5415734,13.8441186 43.1581179,13.8441186 C43.808915,13.8441186 44.3227021,13.7561433 44.6994793,13.5801926 C45.0762565,13.4042419 45.2646451,13.1563115 45.2646451,12.8364012 C45.2646451,12.6124639 45.2004217,12.4245166 45.071975,12.2725592 C44.9435282,12.1206018 44.7166055,11.9726433 44.391207,11.8286837 C44.0658085,11.684724 43.5605845,11.5007756 42.875535,11.2768384 C41.573941,10.8449595 40.6448426,10.3411007 40.0882399,9.76526218 C39.5316372,9.18942363 39.2533358,8.45362992 39.2533358,7.55788105 C39.2533358,6.85407837 39.4674138,6.22625439 39.8955697,5.67440911 C40.3237257,5.12256382 40.9445518,4.69068491 41.758048,4.37877236 C42.5715443,4.0668598 43.5348952,3.91090353 44.6481006,3.91090353 C46.0010733,3.91090353 47.2084731,4.09485196 48.2702998,4.46274881 L48.2702998,7.22197523 C47.8592701,7.06202007 47.3497645,6.92605819 46.7417831,6.81408958 C46.1338017,6.70212097 45.547228,6.64613667 44.9820622,6.64613667 C44.3312652,6.64613667 43.8217596,6.72211537 43.4535455,6.87407277 C43.0853314,7.02603016 42.9012244,7.22197523 42.9012244,7.46190796 C42.9012244,7.66984966 42.9997002,7.84979921 43.196652,8.00175661 C43.3936037,8.153714 43.701876,8.30967028 44.1214688,8.46962543 C44.5410616,8.62958059 44.9991884,8.78953574 45.4958493,8.9494909 C46.7289384,9.38136981 47.6109396,9.88522855 48.141853,10.4610671 C48.6727663,11.0369057 48.938223,11.8126882 48.938223,12.7884146 C48.938223,13.9400917 48.4629699,14.8598339 47.5124638,15.547641 C46.5619576,16.2354482 45.2132664,16.5793518 43.4663902,16.5793518 Z" id="Path"></path>
                                <path d="M57.3386424,3.9348968 C59.4622958,3.9348968 61.1149777,4.47074657 62.2966881,5.5424461 C63.4783985,6.61414564 64.0692537,8.1737084 64.0692537,10.2211344 C64.0692537,11.4687846 63.8166417,12.576474 63.3114177,13.5442027 C62.8061937,14.5119314 62.0868917,15.2597217 61.1535118,15.7875738 C60.2201318,16.3154258 59.1283342,16.5793518 57.8781189,16.5793518 C56.8847971,16.5793518 56.0199221,16.4353921 55.2834939,16.1474728 L55.2834939,21.3060266 L51.4300905,21.3060266 L51.4300905,4.918621 C53.5366177,4.26280487 55.506135,3.9348968 57.3386424,3.9348968 Z M57.1074382,13.4602263 C58.0151288,13.4602263 58.7344307,13.1563115 59.2653441,12.5484819 C59.7962575,11.9406523 60.0617141,11.124881 60.0617141,10.101168 C60.0617141,9.09345053 59.8091021,8.31766804 59.3038781,7.77382051 C58.7986541,7.22997298 58.1093231,6.95804922 57.235885,6.95804922 C56.6193404,6.95804922 55.9685434,7.05402231 55.2834939,7.2459685 L55.2834939,13.0763339 C55.8315335,13.3322621 56.4395149,13.4602263 57.1074382,13.4602263 Z" id="Shape"></path>
                                <path d="M72.5981198,16.5793518 C71.313652,16.5793518 70.1619126,16.3234235 69.1429014,15.811567 C68.1238903,15.2997105 67.3232387,14.5679157 66.7409467,13.6161825 C66.1586546,12.6644494 65.8675086,11.5327666 65.8675086,10.2211344 C65.8675086,8.90950211 66.1586546,7.78181827 66.7409467,6.83808286 C67.3232387,5.89434744 68.1324534,5.17055037 69.1685908,4.66669163 C70.2047282,4.1628329 71.3735939,3.91090353 72.6751879,3.91090353 C73.9425294,3.91090353 75.0899873,4.1628329 76.1175616,4.66669163 C77.1451358,5.17055037 77.950069,5.89034857 78.532361,6.82608622 C79.1146531,7.76182387 79.4057991,8.83752229 79.4057991,10.0531815 C79.4057991,11.3968048 79.1146531,12.5604785 78.532361,13.5442027 C77.950069,14.5279269 77.1408543,15.2797161 76.1047169,15.7995704 C75.0685795,16.3194246 73.8997138,16.5793518 72.5981198,16.5793518 Z M72.6494985,13.5322061 C73.4544317,13.5322061 74.1137918,13.2402879 74.6275789,12.6564516 C75.1413661,12.0726153 75.3982596,11.2288518 75.3982596,10.1251613 C75.3982596,9.13343932 75.1499292,8.35765682 74.6532683,7.79781378 C74.1566074,7.23797074 73.4886842,6.95804922 72.6494985,6.95804922 C71.8103129,6.95804922 71.1381081,7.23397186 70.6328841,7.78581715 C70.1276601,8.33766243 69.8750481,9.14143708 69.8750481,10.1971411 C69.8750481,11.2528451 70.1319416,12.0726153 70.6457288,12.6564516 C71.1595159,13.2402879 71.8274391,13.5322061 72.6494985,13.5322061 Z" id="Shape"></path>
                                <path d="M89.064997,4.03086989 C89.5445316,4.03086989 89.9384351,4.07085868 90.2467073,4.15083626 L90.2467073,7.6058676 C90.00694,7.54188554 89.754328,7.48590123 89.4888713,7.43791469 C89.2234147,7.38992814 88.9451133,7.36593487 88.6539673,7.36593487 C88.054549,7.36593487 87.5150725,7.48990011 87.0355378,7.7378306 C86.5560032,7.98576109 86.1620997,8.30167252 85.8538275,8.68556489 L85.8538275,16.3154258 L82.0004241,16.3154258 L82.0004241,4.22281608 L85.314351,4.22281608 L85.7767594,5.71039902 C86.1021579,5.18254701 86.5431585,4.77066248 87.0997612,4.47474545 C87.6563639,4.17882841 88.3114425,4.03086989 89.064997,4.03086989 Z" id="Path"></path>
                                <path d="M96.8745612,6.8860694 L96.8745612,11.8286837 C96.8745612,12.4365133 97.0115711,12.8963843 97.2855909,13.2082969 C97.5596106,13.5202094 98.0220191,13.6761657 98.6728161,13.6761657 C99.2379819,13.6761657 99.7260797,13.6121837 100.137109,13.4842195 L100.137109,16.2194527 C99.8459633,16.3314213 99.4649045,16.4193966 98.993933,16.4833787 C98.5229615,16.5473607 98.0305822,16.5793518 97.5167951,16.5793518 C96.0096862,16.5793518 94.8836361,16.2234515 94.1386448,15.5116511 C93.3936534,14.7998507 93.0211578,13.7801366 93.0211578,12.4525088 L93.0211578,6.8860694 L91.017388,6.8860694 L91.017388,4.22281608 L93.0211578,4.22281608 L93.0211578,1.58355603 L96.8745612,0.599831829 L96.8745612,4.22281608 L100.239867,4.22281608 L100.239867,6.8860694 L96.8745612,6.8860694 Z" id="Path"></path>
                            </g>
                        </g>
                    </g>
                </g>
            </g>
        </g>
    </g>
</svg>